<svg xmlns="http://www.w3.org/2000/svg" version="1.1" xmlns:xlink="http://www.w3.org/1999/xlink" viewBox="0 0 200 200"><rect width="200" height="200" fill="url('#gradient')"></rect><defs><linearGradient id="gradient" gradientTransform="rotate(45 0.5 0.5)"><stop offset="0%" stop-color="#0000"></stop><stop offset="100%" stop-color="#0000"></stop></linearGradient></defs><g><g fill="#ffffff" transform="matrix(3.364271047227926,0,0,3.364271047227926,20.098565517228238,123.58525820483418)" stroke="#1d1d1d" stroke-width="0.8"><path d="M9.98 0L9.15-2.66L4.45-2.66L3.63 0L-0.03 0L5.19-14.22L8.41-14.22L13.66 0L9.98 0ZM6.80-10.23L5.27-5.30L8.33-5.30L6.80-10.23ZM14.92-13.19L18.21-13.19L18.21-10.57L19.95-10.57L19.95-8.28L18.21-8.28L18.21-3.45Q18.21-2.85 18.43-2.62Q18.64-2.38 19.28-2.38L19.28-2.38Q19.77-2.38 20.10-2.44L20.10-2.44L20.10-0.09Q19.21 0.20 18.24 0.20L18.24 0.20Q16.54 0.20 15.73-0.61Q14.92-1.41 14.92-3.04L14.92-3.04L14.92-8.28L13.57-8.28L13.57-10.57L14.92-10.57L14.92-13.19ZM20.55-4.82L20.54-5.38Q20.54-6.96 21.15-8.20Q21.77-9.43 22.92-10.10Q24.07-10.76 25.63-10.76L25.63-10.76Q28.00-10.76 29.37-9.29Q30.73-7.82 30.73-5.29L30.73-5.29L30.73-5.18Q30.73-2.71 29.36-1.25Q27.99 0.20 25.64 0.20L25.64 0.20Q23.39 0.20 22.02-1.16Q20.65-2.51 20.55-4.82L20.55-4.82ZM23.84-5.77L23.83-5.18Q23.83-3.71 24.29-3.03Q24.75-2.34 25.64-2.34L25.64-2.34Q27.40-2.34 27.44-5.05L27.44-5.05L27.44-5.38Q27.44-8.22 25.63-8.22L25.63-8.22Q23.97-8.22 23.84-5.77L23.84-5.77ZM32.21-10.57L35.29-10.57L35.40-9.33Q36.52-10.76 38.42-10.76L38.42-10.76Q40.42-10.76 41.12-9.17L41.12-9.17Q42.20-10.76 44.23-10.76L44.23-10.76Q47.44-10.76 47.53-6.88L47.53-6.88L47.53 0L44.23 0L44.23-6.67Q44.23-7.48 43.96-7.85Q43.68-8.22 42.96-8.22L42.96-8.22Q41.98-8.22 41.50-7.35L41.50-7.35L41.51-7.22L41.51 0L38.21 0L38.21-6.65Q38.21-7.48 37.95-7.85Q37.69-8.22 36.94-8.22L36.94-8.22Q36.00-8.22 35.50-7.35L35.50-7.35L35.50 0L32.21 0L32.21-10.57Z"></path></g></g></svg>